<?xml version="1.0" encoding="UTF-8"?>
<svg id="Layer_2" data-name="Layer 2" xmlns="http://www.w3.org/2000/svg" xmlns:xlink="http://www.w3.org/1999/xlink" viewBox="0 0 110.12 110.12">
  <defs>
    <style>
      .cls-1 {
        fill: #fff;
      }

      .cls-2 {
        fill: url(#_무제_그라디언트_18);
      }
    </style>
    <linearGradient id="_무제_그라디언트_18" data-name="무제 그라디언트 18" x1="7.52" y1="15.33" x2="99.3" y2="92.03" gradientUnits="userSpaceOnUse">
      <stop offset="0" stop-color="#b9ffa4"/>
      <stop offset="1" stop-color="#89e7da"/>
    </linearGradient>
  </defs>
  <g id="_레이어_1" data-name="레이어 1">
    <g>
      <rect class="cls-2" width="110.12" height="110.12" rx="38.19" ry="38.19"/>
      <path class="cls-1" d="M82.92,36.71h-3.2c-.14-.02-.29-.03-.44-.03h-24.11c-.29,0-.57,.04-.84,.1-9.75,.38-17.57,8.43-17.57,18.28h0c0,10.09,8.21,18.29,18.29,18.29s18.29-8.21,18.29-18.29h0s-.02,0-.02,0c-.02-2.03-1.68-3.67-3.71-3.67h-8.98c-2.05,0-3.72,1.66-3.72,3.72s1.66,3.72,3.72,3.72h4.61c-1.53,4.14-5.52,7.1-10.19,7.1-5.99,0-10.86-4.87-10.86-10.86h0c0-5.99,4.87-10.86,10.86-10.86v-.07s.08,0,.12,0h23.38c1.55,3.32,2.42,7.02,2.42,10.92,0,14.7-12.31,26.59-27.16,25.89-13.27-.62-24.03-11.39-24.66-24.65-.7-14.86,11.19-27.16,25.89-27.16h1.87c4.74,0,5.02-7.08,.29-7.39-1.29-.08-2.6-.09-3.93-.02-16.79,.87-30.46,14.35-31.54,31.13-1.28,19.79,14.8,36.23,34.47,35.56,17.28-.59,31.38-14.52,32.18-31.79,.34-7.37-1.73-14.24-5.48-19.91Z"/>
    </g>
  </g>
</svg>