<?xml version="1.0" encoding="UTF-8"?>
<svg id="Layer_2" data-name="Layer 2" xmlns="http://www.w3.org/2000/svg" xmlns:xlink="http://www.w3.org/1999/xlink" viewBox="0 0 110.12 110.12">
  <defs>
    <style>
      .cls-1 {
        fill: url(#_무제_그라디언트_18);
      }
    </style>
    <linearGradient id="_무제_그라디언트_18" data-name="무제 그라디언트 18" x1="0" y1="55.06" x2="110.12" y2="55.06" gradientUnits="userSpaceOnUse">
      <stop offset="0" stop-color="#b9ffa4"/>
      <stop offset="1" stop-color="#89e7da"/>
    </linearGradient>
  </defs>
  <g id="_레이어_1" data-name="레이어 1">
    <path class="cls-1" d="M71.93,0H38.19C17.1,0,0,17.1,0,38.19v33.74c0,21.09,17.1,38.19,38.19,38.19h33.74c21.09,0,38.19-17.1,38.19-38.19V38.19C110.12,17.1,93.02,0,71.93,0Zm16.47,56.62c-.8,17.27-14.9,31.2-32.18,31.79-19.67,.67-35.74-15.77-34.47-35.56,1.08-16.78,14.74-30.26,31.54-31.13,1.33-.07,2.64-.06,3.93,.02,4.73,.3,4.45,7.39-.29,7.39h-1.87c-14.7,0-26.59,12.31-25.89,27.16,.62,13.27,11.39,24.03,24.66,24.65,14.85,.69,27.16-11.19,27.16-25.89,0-3.9-.87-7.6-2.42-10.92h-23.38s-.08,0-.12,0v.07c-5.99,0-10.86,4.87-10.86,10.86h0c0,5.99,4.87,10.86,10.86,10.86,4.67,0,8.66-2.96,10.19-7.1h-4.61c-2.05,0-3.72-1.66-3.72-3.72s1.66-3.72,3.72-3.72h8.98c2.04,0,3.69,1.64,3.71,3.67h.02c0,10.09-8.21,18.29-18.29,18.29s-18.29-8.21-18.29-18.29h0c0-9.84,7.82-17.89,17.57-18.28,.27-.06,.55-.1,.84-.1h24.11c.15,0,.3,.01,.44,.03h3.2c3.75,5.67,5.82,12.55,5.48,19.91Z"/>
  </g>
</svg>