<?xml version="1.0" encoding="UTF-8"?>
<svg id="Layer_2" data-name="Layer 2" xmlns="http://www.w3.org/2000/svg" xmlns:xlink="http://www.w3.org/1999/xlink" viewBox="0 0 338.92 110.12">
  <defs>
    <style>
      .cls-1 {
        fill: #fff;
      }

      .cls-2 {
        fill: #232222;
      }

      .cls-3 {
        fill: url(#_무제_그라디언트_18);
      }
    </style>
    <linearGradient id="_무제_그라디언트_18" data-name="무제 그라디언트 18" x1="7.52" y1="15.33" x2="99.3" y2="92.03" gradientUnits="userSpaceOnUse">
      <stop offset="0" stop-color="#b9ffa4"/>
      <stop offset="1" stop-color="#89e7da"/>
    </linearGradient>
  </defs>
  <g id="_레이어_1" data-name="레이어 1">
    <g>
      <path class="cls-2" d="M151.69,35.65c5.25,0,9.1,2.37,11.02,5.57v-5.06h10.95v35.68c0,9.54-5.51,17.68-17.87,17.68-10.63,0-17.55-5.38-18.51-13.9h10.83c.71,2.69,3.4,4.42,7.17,4.42,4.16,0,7.43-2.18,7.43-8.2v-5.06c-1.99,3.14-5.77,5.64-11.02,5.64-8.78,0-15.76-7.17-15.76-18.45s6.98-18.32,15.76-18.32Zm3.2,9.54c-4.1,0-7.81,3.08-7.81,8.78s3.71,8.9,7.81,8.9,7.82-3.14,7.82-8.84-3.65-8.84-7.82-8.84Z"/>
      <path class="cls-2" d="M181.6,24.5h10.95v47.4h-10.95V24.5Z"/>
      <path class="cls-2" d="M216.77,72.42c-10.51,0-18.45-7.05-18.45-18.38s8.13-18.38,18.58-18.38,18.58,7.05,18.58,18.38-8.2,18.38-18.7,18.38Zm0-9.48c3.91,0,7.56-2.88,7.56-8.9s-3.59-8.9-7.43-8.9-7.43,2.82-7.43,8.9,3.33,8.9,7.3,8.9Z"/>
      <path class="cls-2" d="M240.28,26.55c0-3.33,2.63-5.96,6.53-5.96s6.47,2.63,6.47,5.96-2.63,5.89-6.47,5.89-6.53-2.63-6.53-5.89Zm1.03,9.61h10.95v35.74h-10.95V36.16Z"/>
      <path class="cls-2" d="M284.86,52.5c0-4.87-2.69-7.56-6.85-7.56s-6.85,2.69-6.85,7.56v19.41h-10.95V36.16h10.95v4.74c2.18-3.01,6.02-5.12,10.83-5.12,8.26,0,13.77,5.64,13.77,15.25v20.88h-10.89v-19.41Z"/>
      <path class="cls-2" d="M316.95,35.65c5.25,0,9.1,2.37,11.02,5.57v-5.06h10.95v35.68c0,9.54-5.51,17.68-17.87,17.68-10.63,0-17.55-5.38-18.51-13.9h10.83c.71,2.69,3.4,4.42,7.17,4.42,4.16,0,7.43-2.18,7.43-8.2v-5.06c-1.99,3.14-5.77,5.64-11.02,5.64-8.78,0-15.76-7.17-15.76-18.45s6.98-18.32,15.76-18.32Zm3.2,9.54c-4.1,0-7.81,3.08-7.81,8.78s3.71,8.9,7.81,8.9,7.82-3.14,7.82-8.84-3.65-8.84-7.82-8.84Z"/>
    </g>
    <g>
      <rect class="cls-3" width="110.12" height="110.12" rx="38.19" ry="38.19"/>
      <path class="cls-1" d="M82.92,36.71h-3.2c-.14-.02-.29-.03-.44-.03h-24.11c-.29,0-.57,.04-.84,.1-9.75,.38-17.57,8.43-17.57,18.28h0c0,10.09,8.21,18.29,18.29,18.29s18.29-8.21,18.29-18.29h0s-.02,0-.02,0c-.02-2.03-1.68-3.67-3.71-3.67h-8.98c-2.05,0-3.72,1.66-3.72,3.72s1.66,3.72,3.72,3.72h4.61c-1.53,4.14-5.52,7.1-10.19,7.1-5.99,0-10.86-4.87-10.86-10.86h0c0-5.99,4.87-10.86,10.86-10.86v-.07s.08,0,.12,0h23.38c1.55,3.32,2.42,7.02,2.42,10.92,0,14.7-12.31,26.59-27.16,25.89-13.27-.62-24.03-11.39-24.66-24.65-.7-14.86,11.19-27.16,25.89-27.16h1.87c4.74,0,5.02-7.08,.29-7.39-1.29-.08-2.6-.09-3.93-.02-16.79,.87-30.46,14.35-31.54,31.13-1.28,19.79,14.8,36.23,34.47,35.56,17.28-.59,31.38-14.52,32.18-31.79,.34-7.37-1.73-14.24-5.48-19.91Z"/>
    </g>
  </g>
</svg>